<mxfile host="Electron" modified="2023-10-28T07:33:58.931Z" agent="Mozilla/5.0 (Windows NT 10.0; Win64; x64) AppleWebKit/537.36 (KHTML, like Gecko) draw.io/21.6.8 Chrome/114.0.5735.289 Electron/25.5.0 Safari/537.36" etag="X2qHw6nbehSvLqgSgfUp" version="21.6.8" type="device">
  <diagram name="Page-1" id="rqFgmKtnExWRTJjOygyV">
    <mxGraphModel dx="1195" dy="703" grid="1" gridSize="10" guides="1" tooltips="1" connect="1" arrows="1" fold="1" page="1" pageScale="1" pageWidth="850" pageHeight="1100" math="0" shadow="0">
      <root>
        <mxCell id="0" />
        <mxCell id="1" parent="0" />
        <mxCell id="HrtiLx9PUwLKMotYTl9H-3" value="«component»&lt;br&gt;&lt;b&gt;Coprocessor 15 (CP15)&lt;/b&gt;" style="html=1;dropTarget=0;whiteSpace=wrap;rounded=1;fontFamily=Computer Modern;" vertex="1" parent="1">
          <mxGeometry x="540" y="380" width="150" height="70" as="geometry" />
        </mxCell>
        <mxCell id="HrtiLx9PUwLKMotYTl9H-4" value="" style="shape=module;jettyWidth=8;jettyHeight=4;fontFamily=Computer Modern;" vertex="1" parent="HrtiLx9PUwLKMotYTl9H-3">
          <mxGeometry x="1" width="20" height="20" relative="1" as="geometry">
            <mxPoint x="-27" y="7" as="offset" />
          </mxGeometry>
        </mxCell>
        <mxCell id="HrtiLx9PUwLKMotYTl9H-5" value="«component»&lt;br&gt;&lt;b&gt;Coprocessor 10 (CP10)&lt;/b&gt;" style="html=1;dropTarget=0;whiteSpace=wrap;rounded=1;fontFamily=Computer Modern;" vertex="1" parent="1">
          <mxGeometry x="160" y="380" width="150" height="70" as="geometry" />
        </mxCell>
        <mxCell id="HrtiLx9PUwLKMotYTl9H-6" value="" style="shape=module;jettyWidth=8;jettyHeight=4;fontFamily=Computer Modern;" vertex="1" parent="HrtiLx9PUwLKMotYTl9H-5">
          <mxGeometry x="1" width="20" height="20" relative="1" as="geometry">
            <mxPoint x="-27" y="7" as="offset" />
          </mxGeometry>
        </mxCell>
        <mxCell id="HrtiLx9PUwLKMotYTl9H-7" value="" style="rounded=0;orthogonalLoop=1;jettySize=auto;html=1;endArrow=halfCircle;endFill=0;endSize=6;strokeWidth=1;sketch=0;fontFamily=Computer Modern;" edge="1" target="HrtiLx9PUwLKMotYTl9H-9" parent="1">
          <mxGeometry relative="1" as="geometry">
            <mxPoint x="350" y="405" as="sourcePoint" />
          </mxGeometry>
        </mxCell>
        <mxCell id="HrtiLx9PUwLKMotYTl9H-8" value="" style="rounded=0;orthogonalLoop=1;jettySize=auto;html=1;endArrow=oval;endFill=0;sketch=0;sourcePerimeterSpacing=0;targetPerimeterSpacing=0;endSize=10;fontFamily=Computer Modern;" edge="1" target="HrtiLx9PUwLKMotYTl9H-9" parent="1">
          <mxGeometry relative="1" as="geometry">
            <mxPoint x="310" y="405" as="sourcePoint" />
          </mxGeometry>
        </mxCell>
        <mxCell id="HrtiLx9PUwLKMotYTl9H-9" value="" style="ellipse;whiteSpace=wrap;html=1;align=center;aspect=fixed;fillColor=none;strokeColor=none;resizable=0;perimeter=centerPerimeter;rotatable=0;allowArrows=0;points=[];outlineConnect=1;fontFamily=Computer Modern;" vertex="1" parent="1">
          <mxGeometry x="325" y="400" width="10" height="10" as="geometry" />
        </mxCell>
        <mxCell id="HrtiLx9PUwLKMotYTl9H-10" value="" style="rounded=0;orthogonalLoop=1;jettySize=auto;html=1;endArrow=halfCircle;endFill=0;endSize=6;strokeWidth=1;sketch=0;exitX=1;exitY=0.647;exitDx=0;exitDy=0;exitPerimeter=0;fontFamily=Computer Modern;" edge="1" parent="1" target="HrtiLx9PUwLKMotYTl9H-12" source="HrtiLx9PUwLKMotYTl9H-5">
          <mxGeometry relative="1" as="geometry">
            <mxPoint x="350" y="425" as="sourcePoint" />
          </mxGeometry>
        </mxCell>
        <mxCell id="HrtiLx9PUwLKMotYTl9H-11" value="" style="rounded=0;orthogonalLoop=1;jettySize=auto;html=1;endArrow=oval;endFill=0;sketch=0;sourcePerimeterSpacing=0;targetPerimeterSpacing=0;endSize=10;exitX=0;exitY=0.644;exitDx=0;exitDy=0;exitPerimeter=0;fontFamily=Computer Modern;" edge="1" parent="1" target="HrtiLx9PUwLKMotYTl9H-12">
          <mxGeometry relative="1" as="geometry">
            <mxPoint x="350" y="425.0799999999999" as="sourcePoint" />
          </mxGeometry>
        </mxCell>
        <mxCell id="HrtiLx9PUwLKMotYTl9H-12" value="" style="ellipse;whiteSpace=wrap;html=1;align=center;aspect=fixed;fillColor=none;strokeColor=none;resizable=0;perimeter=centerPerimeter;rotatable=0;allowArrows=0;points=[];outlineConnect=1;fontFamily=Computer Modern;" vertex="1" parent="1">
          <mxGeometry x="325" y="420" width="10" height="10" as="geometry" />
        </mxCell>
        <mxCell id="HrtiLx9PUwLKMotYTl9H-13" value="" style="rounded=0;orthogonalLoop=1;jettySize=auto;html=1;endArrow=halfCircle;endFill=0;endSize=6;strokeWidth=1;sketch=0;fontFamily=Computer Modern;" edge="1" parent="1" target="HrtiLx9PUwLKMotYTl9H-15">
          <mxGeometry relative="1" as="geometry">
            <mxPoint x="540" y="405" as="sourcePoint" />
          </mxGeometry>
        </mxCell>
        <mxCell id="HrtiLx9PUwLKMotYTl9H-14" value="" style="rounded=0;orthogonalLoop=1;jettySize=auto;html=1;endArrow=oval;endFill=0;sketch=0;sourcePerimeterSpacing=0;targetPerimeterSpacing=0;endSize=10;fontFamily=Computer Modern;" edge="1" parent="1" target="HrtiLx9PUwLKMotYTl9H-15">
          <mxGeometry relative="1" as="geometry">
            <mxPoint x="500" y="405" as="sourcePoint" />
          </mxGeometry>
        </mxCell>
        <mxCell id="HrtiLx9PUwLKMotYTl9H-15" value="" style="ellipse;whiteSpace=wrap;html=1;align=center;aspect=fixed;fillColor=none;strokeColor=none;resizable=0;perimeter=centerPerimeter;rotatable=0;allowArrows=0;points=[];outlineConnect=1;fontFamily=Computer Modern;" vertex="1" parent="1">
          <mxGeometry x="515" y="400" width="10" height="10" as="geometry" />
        </mxCell>
        <mxCell id="HrtiLx9PUwLKMotYTl9H-16" value="" style="rounded=0;orthogonalLoop=1;jettySize=auto;html=1;endArrow=halfCircle;endFill=0;endSize=6;strokeWidth=1;sketch=0;exitX=1;exitY=0.647;exitDx=0;exitDy=0;exitPerimeter=0;fontFamily=Computer Modern;" edge="1" parent="1" target="HrtiLx9PUwLKMotYTl9H-18">
          <mxGeometry relative="1" as="geometry">
            <mxPoint x="500" y="425" as="sourcePoint" />
          </mxGeometry>
        </mxCell>
        <mxCell id="HrtiLx9PUwLKMotYTl9H-17" value="" style="rounded=0;orthogonalLoop=1;jettySize=auto;html=1;endArrow=oval;endFill=0;sketch=0;sourcePerimeterSpacing=0;targetPerimeterSpacing=0;endSize=10;exitX=0;exitY=0.644;exitDx=0;exitDy=0;exitPerimeter=0;fontFamily=Computer Modern;" edge="1" parent="1" target="HrtiLx9PUwLKMotYTl9H-18">
          <mxGeometry relative="1" as="geometry">
            <mxPoint x="540" y="425" as="sourcePoint" />
          </mxGeometry>
        </mxCell>
        <mxCell id="HrtiLx9PUwLKMotYTl9H-18" value="" style="ellipse;whiteSpace=wrap;html=1;align=center;aspect=fixed;fillColor=none;strokeColor=none;resizable=0;perimeter=centerPerimeter;rotatable=0;allowArrows=0;points=[];outlineConnect=1;fontFamily=Computer Modern;" vertex="1" parent="1">
          <mxGeometry x="515" y="420" width="10" height="10" as="geometry" />
        </mxCell>
        <mxCell id="HrtiLx9PUwLKMotYTl9H-19" value="ARM1176JZF_S" style="verticalAlign=top;align=left;spacingTop=8;spacingLeft=2;spacingRight=12;shape=cube;size=10;direction=south;fontStyle=4;html=1;whiteSpace=wrap;fontFamily=Computer Modern;" vertex="1" parent="1">
          <mxGeometry x="350" y="380" width="150" height="70" as="geometry" />
        </mxCell>
      </root>
    </mxGraphModel>
  </diagram>
</mxfile>
